<svg width="150" height="150" viewBox="0 0 150 150" fill="none" xmlns="http://www.w3.org/2000/svg">
<path d="M75 0L90.6469 8.1L108.066 10.7438L115.959 26.4937L128.494 38.8687L125.625 56.25L128.494 73.6312L115.959 86.0062L108.066 101.756L90.6469 104.4L75 112.5L59.3532 104.4L41.9344 101.756L34.0407 86.0062L21.5063 73.6312L24.375 56.25L21.5063 38.8687L34.0407 26.4937L41.9344 10.7438L59.3532 8.1L75 0Z" fill="#5A311F"/>
<path d="M37.5 110.569V150L75 140.625L112.5 150V110.569L93.5813 113.438L75 123.056L56.4188 113.438L37.5 110.569Z" fill="#5A311F"/>
</svg>
