<svg width="150" height="150" viewBox="0 0 150 150" fill="none" xmlns="http://www.w3.org/2000/svg">
<path d="M70 40H80V0H70V40Z" fill="#5A311F"/>
<path d="M50 20V40H40V20H50Z" fill="#5A311F"/>
<path fill-rule="evenodd" clip-rule="evenodd" d="M0 65C0 61.0218 1.58035 57.2064 4.3934 54.3934C7.20644 51.5804 11.0218 50 15 50H105C108.103 49.9984 111.131 50.9593 113.665 52.7503C116.199 54.5413 118.116 57.0742 119.15 60H135C138.978 60 142.794 61.5804 145.607 64.3934C148.42 67.2064 150 71.0218 150 75V95C150 98.9782 148.42 102.794 145.607 105.607C142.794 108.42 138.978 110 135 110H120V115C120 124.283 116.313 133.185 109.749 139.749C103.185 146.312 94.2826 150 85 150H35C25.7174 150 16.815 146.312 10.2513 139.749C3.68749 133.185 0 124.283 0 115L0 65ZM120 100H135C136.326 100 137.598 99.4732 138.536 98.5355C139.473 97.5979 140 96.3261 140 95V75C140 73.6739 139.473 72.4021 138.536 71.4645C137.598 70.5268 136.326 70 135 70H120V100Z" fill="#5A311F"/>
</svg>
