<svg width="150" height="150" viewBox="0 0 150 150" fill="none" xmlns="http://www.w3.org/2000/svg">
<path d="M133.3 60H115L111.1 36.7C110.314 33.1747 108.589 29.928 106.106 27.3046C103.624 24.6811 100.477 22.779 97.0002 21.8C93.5074 20.6763 89.8688 20.0698 86.2002 20H63.8003C60.1317 20.0698 56.4931 20.6763 53.0003 21.8C49.5236 22.779 46.377 24.6811 43.8944 27.3046C41.4119 29.928 39.6861 33.1747 38.9003 36.7L35.0003 60H16.7003C15.9126 59.9952 15.135 60.1766 14.4308 60.5293C13.7266 60.882 13.1156 61.3961 12.6478 62.0297C12.1799 62.6633 11.8683 63.3984 11.7384 64.1753C11.6085 64.9521 11.664 65.7487 11.9003 66.5L30.7003 129.5C31.6574 132.543 33.5599 135.202 36.1316 137.091C38.7032 138.979 41.8099 139.998 45.0003 140H105C108.174 139.977 111.258 138.948 113.809 137.061C116.361 135.175 118.248 132.527 119.2 129.5L138 66.5C138.234 65.7567 138.291 64.969 138.166 64.1998C138.042 63.4306 137.739 62.7012 137.282 62.0698C136.826 61.4383 136.228 60.9224 135.537 60.563C134.845 60.2036 134.079 60.0108 133.3 60ZM45.2003 60L48.8003 38.3C49.1949 36.5282 50.1104 34.915 51.4291 33.6676C52.7477 32.4202 54.4093 31.5957 56.2003 31.3C58.6603 30.52 61.2203 30.09 63.8003 30H86.2002C88.8102 30.08 91.4003 30.51 93.9003 31.3C95.6912 31.5957 97.3528 32.4202 98.6714 33.6676C99.9901 34.915 100.906 36.5282 101.3 38.3L104.8 60H44.8003H45.2003Z" fill="#5A311F"/>
</svg>
