<?xml version="1.0" encoding="UTF-8" standalone="no"?>
<svg
   xmlns:dc="http://purl.org/dc/elements/1.1/"
   xmlns:cc="http://creativecommons.org/ns#"
   xmlns:rdf="http://www.w3.org/1999/02/22-rdf-syntax-ns#"
   xmlns:svg="http://www.w3.org/2000/svg"
   xmlns="http://www.w3.org/2000/svg"
   xmlns:sodipodi="http://sodipodi.sourceforge.net/DTD/sodipodi-0.dtd"
   xmlns:inkscape="http://www.inkscape.org/namespaces/inkscape"
   width="372.24564mm"
   height="134.98743mm"
   viewBox="0 0 372.24563 134.98743"
   version="1.1"
   id="svg8"
   inkscape:version="1.0 (4035a4fb49, 2020-05-01)"
   sodipodi:docname="koffee-khayalaan-logo-white.svg">
  <defs
     id="defs2" />
  <sodipodi:namedview
     id="base"
     pagecolor="#ffffff"
     bordercolor="#666666"
     borderopacity="1.0"
     inkscape:pageopacity="0.0"
     inkscape:pageshadow="2"
     inkscape:zoom="0.69842873"
     inkscape:cx="813.83498"
     inkscape:cy="205.75931"
     inkscape:document-units="mm"
     inkscape:current-layer="layer1"
     inkscape:document-rotation="0"
     showgrid="false"
     showguides="true"
     inkscape:snap-global="false"
     inkscape:guide-bbox="true"
     inkscape:window-width="1920"
     inkscape:window-height="1046"
     inkscape:window-x="-11"
     inkscape:window-y="-11"
     inkscape:window-maximized="1">
    <sodipodi:guide
       position="135.44792,82.234834"
       orientation="0,-1"
       id="guide886" />
    <sodipodi:guide
       position="119.80734,13.328552"
       orientation="0,-1"
       id="guide918" />
  </sodipodi:namedview>
  <metadata
     id="metadata5">
    <rdf:RDF>
      <cc:Work
         rdf:about="">
        <dc:format>image/svg+xml</dc:format>
        <dc:type
           rdf:resource="http://purl.org/dc/dcmitype/StillImage" />
        <dc:title></dc:title>
      </cc:Work>
    </rdf:RDF>
  </metadata>
  <g
     inkscape:label="Layer 1"
     inkscape:groupmode="layer"
     id="layer1"
     transform="translate(52.705699,-24.732526)">
    <g
       aria-label="K"
       id="text844"
       style="font-size:77.7083px;line-height:1.25;font-family:'Times New Roman';-inkscape-font-specification:'Times New Roman, ';stroke-width:3.23784;fill:#ffffff"
       transform="translate(30.049107,19.654762)">
      <path
         d="m 43.624614,29.296841 18.971752,18.857922 c 3.111367,3.111367 5.767413,5.236204 7.968136,6.374509 2.200723,1.113009 4.401447,1.745401 6.60217,1.897175 v 1.40391 H 52.693111 v -1.40391 c 1.467149,0 2.51692,-0.240309 3.149311,-0.720927 0.657687,-0.505913 0.986531,-1.062418 0.986531,-1.669514 0,-0.607096 -0.126478,-1.150953 -0.379435,-1.631571 -0.227661,-0.480617 -1.011826,-1.378613 -2.352497,-2.693988 L 36.339461,32.142604 v 85.656456 c 0,2.60545 0.164422,4.32556 0.493265,5.16032 0.252957,0.63239 0.784166,1.17625 1.593627,1.63157 1.087714,0.60709 2.238667,0.91064 3.452859,0.91064 h 1.745402 v 1.40391 H 21.693268 v -1.40391 h 1.821288 c 2.124836,0 3.667872,-0.61974 4.629108,-1.85923 0.607096,-0.80946 0.910644,-2.75723 0.910644,-5.8433 V 15.485405 c 0,-2.605454 -0.164422,-4.338207 -0.493266,-5.19826 C 28.308085,9.680049 27.789524,9.14884 27.005359,8.6935179 25.892349,8.0864218 24.728748,7.7828738 23.514556,7.7828738 H 21.693268 V 6.3789642 h 21.931346 v 1.4039096 h -1.745402 c -1.188896,0 -2.339849,0.2909002 -3.452859,0.8727006 -0.784165,0.4047307 -1.328022,1.0118269 -1.63157,1.8212886 -0.303548,0.809461 -0.455322,2.478975 -0.455322,5.008542 V 31.23196 c 0.505913,-0.480618 2.238667,-2.086893 5.19826,-4.818825 7.512814,-6.880423 12.053387,-11.471587 13.621718,-13.773493 0.682983,-1.011827 1.024475,-1.897175 1.024475,-2.6560449 0,-0.5818004 -0.265605,-1.0877138 -0.796814,-1.5177402 C 54.855891,8.0105348 53.957894,7.7828738 52.693111,7.7828738 H 51.516863 V 6.3789642 h 18.895865 v 1.4039096 c -1.113009,0.025295 -2.124836,0.1770694 -3.03548,0.4553221 -0.910645,0.2782523 -2.023654,0.8221092 -3.339029,1.6315707 -1.315375,0.7841654 -2.934297,2.0615974 -4.856768,3.8322944 -0.556505,0.505913 -3.124016,3.098719 -7.702532,7.778418 z"
         style="stroke-width:3.23784;fill:#ffffff"
         id="path846"
         sodipodi:nodetypes="ccccccccscccsccsccccscssccsccccscsscccscsccccscccc" />
    </g>
    <g
       aria-label="h"
       id="text877"
       style="font-size:6.35px;line-height:1.25;font-family:'Times New Roman';-inkscape-font-specification:'Times New Roman, ';stroke-width:0.264583;fill:#ffffff"
       transform="matrix(14.930711,0,0,14.930711,-1885.3056,-967.9035)">
      <path
         d="m 132.45222,70.507069 v 1.94619 q 0.32242,-0.354382 0.51123,-0.453143 0.18881,-0.101671 0.37762,-0.101671 0.22658,0 0.38924,0.124905 0.16266,0.124904 0.24109,0.392143 0.0552,0.185904 0.0552,0.679713 v 0.941142 q 0,0.252714 0.0406,0.345667 0.0291,0.06971 0.0987,0.110378 0.0697,0.04067 0.25562,0.04067 v 0.104565 h -1.30715 v -0.104577 h 0.061 q 0.1859,0 0.25852,-0.05519 0.0726,-0.0581 0.10167,-0.168476 0.009,-0.04648 0.009,-0.273047 v -0.941143 q 0,-0.435713 -0.0465,-0.572236 -0.0435,-0.136524 -0.14232,-0.203333 -0.0987,-0.06971 -0.2382,-0.06971 -0.14232,0 -0.29629,0.07552 -0.15394,0.07552 -0.36889,0.305 v 1.405903 q 0,0.273047 0.0291,0.339857 0.032,0.0668 0.11335,0.113285 0.0842,0.04358 0.28757,0.04358 v 0.104577 h -1.31876 v -0.104577 q 0.17719,0 0.27885,-0.05519 0.0581,-0.02905 0.0929,-0.110378 0.0349,-0.08134 0.0349,-0.331143 v -2.408043 q 0,-0.456047 -0.0232,-0.560618 -0.0203,-0.104577 -0.0668,-0.142332 -0.0435,-0.03776 -0.11906,-0.03776 -0.0611,0 -0.19753,0.04648 l -0.0406,-0.10167 0.7959,-0.325333 z"
         style="stroke-width:0.247873;fill:#ffffff"
         id="path879" />
    </g>
    <g
       aria-label="offee"
       id="text884"
       style="font-size:75.9051px;line-height:1.25;font-family:'Times New Roman';-inkscape-font-specification:'Times New Roman, ';stroke-width:3.1627;fill:#ffffff">
      <path
         d="m 127.35185,42.411595 q 7.70912,0 12.37906,5.855959 3.96574,5.00351 3.96574,11.489542 0,4.558753 -2.18672,9.228695 -2.18672,4.669943 -6.04127,7.041977 -3.81749,2.372035 -8.5245,2.372035 -7.67205,0 -12.19374,-6.115401 -3.81749,-5.151762 -3.81749,-11.563668 0,-4.669942 2.29791,-9.265759 2.33497,-4.632879 6.1154,-6.819598 3.78043,-2.223782 8.00561,-2.223782 z m -1.14895,2.409097 q -1.96434,0 -3.96574,1.186017 -1.96435,1.148954 -3.18743,4.076934 -1.22308,2.92798 -1.22308,7.523796 0,7.412608 2.92798,12.786748 2.96505,5.37414 7.78324,5.37414 3.59512,0 5.93009,-2.965043 2.33497,-2.965043 2.33497,-10.192335 0,-9.043381 -3.89162,-14.232206 -2.63148,-3.558051 -6.70841,-3.558051 z"
         style="stroke-width:3.1627;fill:#ffffff"
         id="path888" />
      <path
         d="m 161.96873,46.080835 v 22.311948 q 0,4.744069 1.03777,6.004212 1.37133,1.630773 3.66924,1.630773 h 3.07623 v 1.33427 h -20.27348 v -1.33427 h 1.51958 q 1.48252,0 2.7056,-0.74126 1.22308,-0.741261 1.66784,-2.001404 0.48182,-1.260144 0.48182,-4.892321 V 46.080835 h -6.59722 v -2.668538 h 6.59722 v -2.223783 q 0,-5.077636 1.63077,-8.598624 1.63078,-3.520988 4.96645,-5.670644 3.37274,-2.18672 7.56086,-2.18672 3.89162,0 7.15316,2.520287 2.14966,1.667836 2.14966,3.743366 0,1.111892 -0.96364,2.112594 -0.96364,0.963638 -2.07553,0.963638 -0.85245,0 -1.81609,-0.593008 -0.92657,-0.630072 -2.29791,-2.631476 -1.37133,-2.038467 -2.52028,-2.742664 -1.14896,-0.704198 -2.55735,-0.704198 -1.7049,0 -2.89092,0.926576 -1.18601,0.889513 -1.7049,2.816791 -0.51888,1.890214 -0.51888,9.821704 v 2.446161 h 8.74688 v 2.668538 z"
         style="stroke-width:3.1627;fill:#ffffff"
         id="path890" />
      <path
         d="m 185.98558,46.080835 v 22.311948 q 0,4.744069 1.03776,6.004212 1.37134,1.630773 3.66925,1.630773 h 3.07623 v 1.33427 h -20.27348 v -1.33427 h 1.51958 q 1.48252,0 2.7056,-0.74126 1.22308,-0.741261 1.66784,-2.001404 0.48182,-1.260144 0.48182,-4.892321 V 46.080835 h -6.59722 v -2.668538 h 6.59722 v -2.223783 q 0,-5.077636 1.63077,-8.598624 1.63078,-3.520988 4.96645,-5.670644 3.37274,-2.18672 7.56086,-2.18672 3.89162,0 7.15316,2.520287 2.14966,1.667836 2.14966,3.743366 0,1.111892 -0.96364,2.112594 -0.96364,0.963638 -2.07553,0.963638 -0.85245,0 -1.81609,-0.593008 -0.92657,-0.630072 -2.29791,-2.631476 -1.37133,-2.038467 -2.52028,-2.742664 -1.14896,-0.704198 -2.55735,-0.704198 -1.7049,0 -2.89092,0.926576 -1.18602,0.889513 -1.7049,2.816791 -0.51888,1.890214 -0.51888,9.821704 v 2.446161 h 8.74688 v 2.668538 z"
         style="stroke-width:3.1627;fill:#ffffff"
         id="path892" />
      <path
         d="m 203.77583,56.199044 q -0.0371,7.560859 3.66924,11.860172 3.70631,4.299312 8.70982,4.299312 3.33567,0 5.78183,-1.816089 2.48322,-1.853152 4.15106,-6.300716 l 1.14895,0.741261 q -0.77832,5.077636 -4.52169,9.265759 -3.74336,4.15106 -9.37694,4.15106 -6.11541,0 -10.48884,-4.744069 -4.33638,-4.781132 -4.33638,-12.82381 0,-8.709814 4.44757,-13.565072 4.48462,-4.89232 11.2301,-4.89232 5.7077,0 9.37694,3.780429 3.66924,3.743367 3.66924,10.044083 z m 0,-2.149656 h 15.71473 q -0.18532,-3.261547 -0.77832,-4.595817 -0.92658,-2.07553 -2.77973,-3.261547 -1.81609,-1.186017 -3.81749,-1.186017 -3.07624,0 -5.5224,2.409097 -2.40909,2.372035 -2.81679,6.634284 z"
         style="stroke-width:3.1627;fill:#ffffff"
         id="path894" />
      <path
         d="m 237.42907,56.199044 q -0.0371,7.560859 3.66924,11.860172 3.7063,4.299312 8.70981,4.299312 3.33568,0 5.78184,-1.816089 2.48322,-1.853152 4.15106,-6.300716 l 1.14895,0.741261 q -0.77832,5.077636 -4.52169,9.265759 -3.74337,4.15106 -9.37695,4.15106 -6.1154,0 -10.48884,-4.744069 -4.33637,-4.781132 -4.33637,-12.82381 0,-8.709814 4.44756,-13.565072 4.48463,-4.89232 11.2301,-4.89232 5.70771,0 9.37695,3.780429 3.66924,3.743367 3.66924,10.044083 z m 0,-2.149656 h 15.71473 q -0.18532,-3.261547 -0.77833,-4.595817 -0.92657,-2.07553 -2.77973,-3.261547 -1.81608,-1.186017 -3.81749,-1.186017 -3.07623,0 -5.52239,2.409097 -2.4091,2.372035 -2.81679,6.634284 z"
         style="stroke-width:3.1627;fill:#ffffff"
         id="path896" />
    </g>
    <g
       aria-label="a"
       id="text901"
       style="font-size:71.0546px;line-height:1.25;font-family:'Times New Roman';-inkscape-font-specification:'Times New Roman, ';stroke-width:0.266454;fill:#ffffff">
      <path
         d="m 140.47319,113.40039 q -4.89194,3.78171 -6.14095,4.37152 -1.87351,0.86737 -3.98988,0.86737 -3.29599,0 -5.44706,-2.25515 -2.11637,-2.25515 -2.11637,-5.93279 0,-2.32454 1.04084,-4.02457 1.42248,-2.35924 4.92664,-4.44092 3.53885,-2.081673 11.72678,-5.065411 v -1.249007 q 0,-4.753164 -1.52656,-6.52259 -1.49187,-1.769427 -4.37152,-1.769427 -2.18577,0 -3.46947,1.179618 -1.31839,1.179617 -1.31839,2.706181 l 0.0694,2.012289 q 0,1.595953 -0.83267,2.463318 -0.79798,0.867366 -2.11638,0.867366 -1.2837,0 -2.11637,-0.90206 -0.79798,-0.902061 -0.79798,-2.463319 0,-2.983738 3.05313,-5.481752 3.05313,-2.498013 8.56957,-2.498013 4.23275,0 6.93893,1.42248 2.04698,1.075533 3.01843,3.365379 0.62451,1.491869 0.62451,6.106255 v 10.790033 q 0,4.54499 0.17347,5.58583 0.17347,1.00615 0.55511,1.35309 0.41634,0.34695 0.93676,0.34695 0.55511,0 0.97145,-0.24286 0.72859,-0.45103 2.81026,-2.53271 v 1.9429 q -3.88579,5.20419 -7.42465,5.20419 -1.70003,0 -2.70618,-1.17961 -1.00614,-1.17962 -1.04084,-4.02458 z m 0,-2.25515 V 99.036811 q -5.23889,2.081679 -6.76545,2.949039 -2.74088,1.52657 -3.92049,3.19191 -1.17962,1.66534 -1.17962,3.64294 0,2.49801 1.49187,4.16335 1.49187,1.63065 3.43477,1.63065 2.63679,0 6.93892,-3.46946 z"
         style="font-size:71.0546px;stroke-width:0.266454;fill:#ffffff"
         id="path993" />
    </g>
    <g
       aria-label="y"
       id="text905"
       style="font-size:52.0547px;line-height:1.25;font-family:'Times New Roman';-inkscape-font-specification:'Times New Roman, ';stroke-width:2.16894;fill:#ffffff">
      <path
         d="m 137.75768,125.20321 h 10.8532 v 0.94044 h -0.53377 q -1.14378,0 -1.72838,0.50835 -0.55918,0.48293 -0.55918,1.22003 0,0.99128 0.83877,2.74507 l 5.66807,11.74281 5.21055,-12.86117 q 0.4321,-1.04211 0.4321,-2.0588 0,-0.45752 -0.17792,-0.68627 -0.20334,-0.27959 -0.63544,-0.4321 -0.43209,-0.17792 -1.52504,-0.17792 v -0.94044 h 7.57437 v 0.94044 q -0.94044,0.10167 -1.44879,0.40668 -0.50835,0.30501 -1.11836,1.14378 -0.22876,0.35584 -0.86419,1.95713 l -9.48067,23.23145 q -1.37253,3.3805 -3.60926,5.10888 -2.21131,1.72838 -4.27011,1.72838 -1.49962,0 -2.46548,-0.86419 -0.96586,-0.86419 -0.96586,-1.98255 0,-1.06753 0.68627,-1.72838 0.71168,-0.63543 1.93172,-0.63543 0.83877,0 2.28756,0.55918 1.01669,0.38126 1.27086,0.38126 0.76252,0 1.65213,-0.78794 0.91502,-0.78794 1.83005,-3.05008 l 1.65212,-4.04136 -8.3623,-17.56337 q -0.38126,-0.78794 -1.22003,-1.95714 -0.63543,-0.8896 -1.04211,-1.19461 -0.5846,-0.40668 -1.88088,-0.71169 z"
         style="stroke-width:2.16894;fill:#ffffff"
         id="path990" />
    </g>
    <g
       aria-label="a"
       id="text909"
       style="font-size:70.5556px;line-height:1.25;font-family:'Times New Roman';-inkscape-font-specification:'Times New Roman, ';stroke-width:0.264583;fill:#ffffff">
      <path
         d="m 186.01093,141.45102 q -4.85759,3.75516 -6.09782,4.34082 -1.86036,0.86128 -3.96187,0.86128 -3.27284,0 -5.4088,-2.23931 -2.10151,-2.23932 -2.10151,-5.89112 0,-2.30822 1.03353,-3.99632 1.41249,-2.34266 4.89204,-4.40972 3.514,-2.06706 11.64443,-5.02984 v -1.24024 q 0,-4.71978 -1.51584,-6.47678 -1.48139,-1.757 -4.34083,-1.757 -2.17041,0 -3.44509,1.17133 -1.30914,1.17133 -1.30914,2.68718 l 0.0689,1.99815 q 0,1.58475 -0.82682,2.44602 -0.79237,0.86128 -2.10151,0.86128 -1.27469,0 -2.10151,-0.89573 -0.79237,-0.89572 -0.79237,-2.44602 0,-2.96278 3.03168,-5.44325 3.03169,-2.48047 8.50939,-2.48047 4.20302,0 6.8902,1.41249 2.03261,1.06798 2.99723,3.34174 0.62012,1.4814 0.62012,6.06338 v 10.71425 q 0,4.51308 0.17226,5.54661 0.17225,0.99908 0.55121,1.34359 0.41341,0.3445 0.93018,0.3445 0.55121,0 0.96463,-0.24115 0.72347,-0.44786 2.79053,-2.51492 v 1.92925 q -3.85851,5.16765 -7.37251,5.16765 -1.6881,0 -2.68718,-1.17134 -0.99908,-1.17133 -1.03353,-3.99631 z m 0,-2.23931 v -12.02339 q -5.2021,2.06706 -6.71794,2.92833 -2.72163,1.51584 -3.89296,3.16949 -1.17133,1.65365 -1.17133,3.61735 0,2.48047 1.48139,4.13412 1.48139,1.6192 3.41064,1.6192 2.61828,0 6.8902,-3.4451 z"
         style="font-size:70.5556px;stroke-width:0.264583;fill:#ffffff"
         id="path987" />
    </g>
    <g
       aria-label="l"
       id="text913"
       style="font-size:6.35px;line-height:1.25;font-family:'Times New Roman';-inkscape-font-specification:'Times New Roman, ';stroke-width:0.264583;fill:#ffffff"
       transform="matrix(13.34195,0,0,13.34195,-2680.2991,-1309.0954)">
      <path
         d="m 216.72741,104.69301 v 3.76721 q 0,0.26665 0.0372,0.35347 0.0403,0.0868 0.12092,0.13332 0.0806,0.0434 0.30076,0.0434 v 0.11162 h -1.39216 v -0.11162 q 0.19533,0 0.26665,-0.0403 0.0713,-0.0403 0.11162,-0.13332 0.0403,-0.093 0.0403,-0.35657 v -2.57969 q 0,-0.48059 -0.0217,-0.58911 -0.0217,-0.11162 -0.0713,-0.15193 -0.0465,-0.0403 -0.12092,-0.0403 -0.0806,0 -0.20464,0.0496 l -0.0527,-0.10852 0.84646,-0.34727 z"
         style="stroke-width:0.264583;fill:#ffffff"
         id="path915" />
    </g>
    <g
       aria-label="a"
       id="text922"
       style="font-size:53.0943px;line-height:1.25;font-family:'Times New Roman';-inkscape-font-specification:'Times New Roman, ';stroke-width:2.21226;fill:#ffffff">
      <path
         d="m 232.03063,109.04761 q -3.65542,2.82582 -4.58872,3.26654 -1.39995,0.64813 -2.98137,0.64813 -2.46287,0 -4.07021,-1.68512 -1.58143,-1.68513 -1.58143,-4.43317 0,-1.73697 0.77775,-3.00729 1.06292,-1.7629 3.68134,-3.3184 2.64435,-1.555496 8.76264,-3.785041 V 95.79996 q 0,-3.551718 -1.1407,-4.87389 -1.11477,-1.322173 -3.26654,-1.322173 -1.63328,0 -2.5925,0.881448 -0.98515,0.881449 -0.98515,2.022147 l 0.0519,1.503647 q 0,1.192547 -0.6222,1.840671 -0.59627,0.648124 -1.58142,0.648124 -0.95922,0 -1.58142,-0.674049 -0.59627,-0.674048 -0.59627,-1.840671 0,-2.229546 2.28139,-4.096143 2.2814,-1.866596 6.40347,-1.866596 3.16284,0 5.18499,1.062923 1.52957,0.803673 2.25547,2.51472 0.46665,1.114773 0.46665,4.562792 v 8.06266 q 0,3.39617 0.12962,4.17392 0.12962,0.75182 0.4148,1.01107 0.3111,0.25925 0.69997,0.25925 0.4148,0 0.7259,-0.18148 0.54443,-0.33702 2.09992,-1.89252 v 1.4518 q -2.90359,3.88874 -5.54794,3.88874 -1.27032,0 -2.02214,-0.88145 -0.75183,-0.88144 -0.77775,-3.00729 z m 0,-1.68512 v -9.047809 q -3.91467,1.555497 -5.05537,2.203619 -2.04807,1.1407 -2.92952,2.3851 -0.88145,1.24439 -0.88145,2.72212 0,1.86659 1.11478,3.11099 1.11477,1.21847 2.56657,1.21847 1.97029,0 5.18499,-2.59249 z"
         style="stroke-width:2.21226;fill:#ffffff"
         id="path984" />
    </g>
    <g
       aria-label="a"
       id="text926"
       style="font-size:53.0943px;line-height:1.25;font-family:'Times New Roman';-inkscape-font-specification:'Times New Roman, ';stroke-width:2.21226;fill:#ffffff"
       transform="translate(11.743622)">
      <path
         d="m 232.03063,142.53146 q -3.65542,2.82582 -4.58872,3.26654 -1.39995,0.64813 -2.98137,0.64813 -2.46287,0 -4.07021,-1.68513 -1.58143,-1.68512 -1.58143,-4.43316 0,-1.73697 0.77775,-3.0073 1.06292,-1.76289 3.68134,-3.31839 2.64435,-1.5555 8.76264,-3.78504 v -0.9333 q 0,-3.55172 -1.1407,-4.87389 -1.11477,-1.32217 -3.26654,-1.32217 -1.63328,0 -2.5925,0.88144 -0.98515,0.88145 -0.98515,2.02215 l 0.0519,1.50365 q 0,1.19254 -0.6222,1.84067 -0.59627,0.64812 -1.58142,0.64812 -0.95922,0 -1.58142,-0.67405 -0.59627,-0.67404 -0.59627,-1.84067 0,-2.22954 2.28139,-4.09614 2.2814,-1.8666 6.40347,-1.8666 3.16284,0 5.18499,1.06293 1.52957,0.80367 2.25547,2.51472 0.46665,1.11477 0.46665,4.56279 v 8.06266 q 0,3.39617 0.12962,4.17391 0.12962,0.75183 0.4148,1.01108 0.3111,0.25925 0.69997,0.25925 0.4148,0 0.7259,-0.18148 0.54443,-0.33702 2.09992,-1.89252 v 1.4518 q -2.90359,3.88874 -5.54794,3.88874 -1.27032,0 -2.02214,-0.88145 -0.75183,-0.88145 -0.77775,-3.00729 z m 0,-1.68512 v -9.04781 q -3.91467,1.5555 -5.05537,2.20362 -2.04807,1.1407 -2.92952,2.3851 -0.88145,1.24439 -0.88145,2.72212 0,1.86659 1.11478,3.11099 1.11477,1.21847 2.56657,1.21847 1.97029,0 5.18499,-2.59249 z"
         style="stroke-width:2.21226;fill:#ffffff"
         id="path981" />
    </g>
    <g
       aria-label="n"
       id="text944"
       style="font-size:53.0943px;line-height:1.25;font-family:'Times New Roman';-inkscape-font-specification:'Times New Roman, ';stroke-width:2.21226;fill:#ffffff"
       transform="matrix(2.3946115,0,0,2.3946115,-327.04658,-153.19531)">
      <path
         d="m 252.28462,105.64184 q 4.17392,-5.02944 7.95896,-5.02944 1.94437,0 3.34432,0.98515 1.39995,0.95922 2.22954,3.18877 0.57035,1.5555 0.57035,4.77019 v 10.13666 q 0,2.25547 0.36295,3.05914 0.28518,0.64812 0.90738,1.01107 0.64812,0.36295 2.35917,0.36295 v 0.9333 h -11.74401 v -0.9333 h 0.49258 q 1.65919,0 2.30732,-0.49257 0.67405,-0.5185 0.9333,-1.50365 0.1037,-0.38887 0.1037,-2.43694 v -9.72186 q 0,-3.24062 -0.85553,-4.69242 -0.8296,-1.47772 -2.82582,-1.47772 -3.08507,0 -6.14421,3.37025 v 12.52175 q 0,2.41102 0.28517,2.98137 0.36295,0.75182 0.98515,1.11477 0.64813,0.33702 2.5925,0.33702 v 0.9333 h -11.74401 v -0.9333 h 0.5185 q 1.81475,0 2.43695,-0.90737 0.64812,-0.9333 0.64812,-3.52579 v -8.81449 q 0,-4.27761 -0.2074,-5.21091 -0.18147,-0.9333 -0.59627,-1.27032 -0.38888,-0.33703 -1.06292,-0.33703 -0.7259,0 -1.73698,0.38888 l -0.38887,-0.9333 7.15529,-2.9036 h 1.11477 z"
         style="stroke-width:2.21226;fill:#ffffff"
         id="path978" />
    </g>
    <path
       id="path960"
       style="fill:#8c4f2b;fill-opacity:1;stroke:none;stroke-width:1.12057px;stroke-linecap:butt;stroke-linejoin:miter;stroke-opacity:1"
       d="M -8.0260143,26.57748 C -8.755178,26.54003 -9.216831,26.5409 -9.3409274,26.54259 c 3.0311821,9.765736 5.29529,15.760495 7.2838092,23.822646 0.4543851,1.842236 0.7968382,3.460216 1.0578213,5.593184 0.260961,2.132954 0.4332447,4.512854 0.5225501,7.076167 0.1786235,5.126602 -0.0173399,11.389203 -0.3961077,17.067173 -0.4107036,6.156708 -1.0869593,12.301733 -2.0323949,18.399264 -0.8680563,5.598476 -2.2142015,11.112316 -3.3372865,16.665256 -0.4997664,2.47103 -1.1268806,4.91896 -1.5135195,7.41019 -0.3742946,2.4117 -0.6476228,4.84317 -0.778037,7.28025 -0.233625,4.36581 -0.2379713,9.24251 -0.006,13.11616 0.052044,0.86904 -0.5890513,2.15696 0.2155404,2.11331 4.8175068,-0.26134 9.3896092,-2.64617 13.7650063,-4.57841 C 19.830011,134.15319 20.578639,128.50147 28.541796,110.02522 36.504973,91.548947 31.038562,66.970582 22.552337,46.515685 15.288453,29.007082 -2.9219259,26.839546 -8.0260198,26.577638 Z m -7.2227037,1.479503 c -3.730208,0.658415 -7.717557,1.501609 -11.484916,2.830989 -10.331018,3.645469 -23.271605,17.991303 -25.672899,40.048929 -2.401281,22.05762 10.111533,57.074399 21.10954,68.205859 4.665878,4.7225 10.564942,6.71976 16.879141,7.09283 -0.257903,-4.16635 -0.49402,-9.69552 -0.663091,-17.36348 -0.07276,-3.30109 0.130547,-5.83067 0.523793,-8.37876 0.393296,-2.54808 0.976083,-5.11481 1.659375,-8.4895 0.683289,-3.37466 1.466841,-7.55721 2.264044,-13.338043 0.7971914,-5.780855 1.6072276,-13.159904 2.342233,-22.926516 0.3675209,-4.883316 0.3845082,-9.601146 0.1318619,-14.117251 -0.2526735,-4.516092 -0.7742105,-8.829919 -1.4829907,-12.909328 -0.7087702,-4.079409 -1.6042382,-7.924248 -2.6050532,-11.497469 -0.928386,-3.314635 -1.957429,-6.336826 -3.001038,-9.15826 z"
       sodipodi:nodetypes="ccaccaaaaasssssccccsscscssccssc" />
  </g>
</svg>
